<svg aria-hidden="true" style="position: absolute; width: 0; height: 0; overflow: hidden;" version="1.1" xmlns="http://www.w3.org/2000/svg" xmlns:xlink="http://www.w3.org/1999/xlink">
<defs>
<symbol id="icon-CBRE" viewBox="0 0 130 32">
<path fill="#8491a0" style="fill: var(--color1, #8491a0)" d="M58.884 15.478c4.094-1.351 4.836-4.767 4.827-7.55-0.008-4.249-3.026-7.925-11.959-7.925l-16.674-0.003v31.934h16.631c8.987 0 12.293-4.586 12.293-9.18 0-5.563-5.118-7.276-5.118-7.276zM42.99 6.947l11.267 0.008c1.267 0.223 2.19 1.294 2.19 2.551 0 1.286-0.989 2.496-2.295 2.673l-11.154 0.017-0.008-5.249zM53.676 24.492h-10.686v-5.347l10.973 0.003c1.362 0.156 2.394 1.282 2.394 2.619 0 1.457-1.221 2.702-2.681 2.725z"></path>
<path fill="#8491a0" style="fill: var(--color1, #8491a0)" d="M101.339 0.004h28.177l-0.016 6.97h-20.332l0.019 5.147h18.33v7.006h-18.33v5.57h20.335l-0.004 7.303h-28.18v-31.996z"></path>
<path fill="#8491a0" style="fill: var(--color1, #8491a0)" d="M84.95 0.046h-17.039v31.944h7.825v-12.924c0 0 8.616-0.010 8.617-0.010 2.468 0.038 4.387 2.047 4.387 4.525v8.381l7.659-0.003-0.015-10.31c0-4.776-4.641-6.187-4.641-6.187s4.745-1.412 4.745-7.058c0-6.908-5.973-8.359-11.537-8.359zM89.221 9.957c-0.141 1.050-1.197 2.189-2.516 2.189l-10.997 0.004v-5.115h11.002c1.313 0 2.343 0.962 2.51 2.225v0.697z"></path>
<path fill="#8491a0" style="fill: var(--color1, #8491a0)" d="M30.003 24.271c-0.113 0.003-10.696 0.206-14.349-0.148-5.885-0.573-7.969-4.906-7.969-8.442 0-4.409 3.024-7.654 7.709-8.264 2.229-0.29 14.416-0.153 14.545-0.152l0.256 0.003 0.026-7.264-0.259 0.001-13.794 0.025c-1.536 0.093-4.082 0.247-6.689 1.307-2.504 1.141-4.684 2.892-6.312 5.072-2.071 2.775-3.168 6.067-3.168 9.521 0 1.086 0.086 2.165 0.263 3.199 0.993 4.843 4.187 8.851 8.767 11.007 1.547 0.676 3.932 1.488 8.742 1.756 0.010 0 2.591 0.054 2.591 0.054l9.87 0.010 0.027-7.688-0.257 0.003z"></path>
</symbol>
<symbol id="icon-CUADROS" viewBox="0 0 26 32">
<path fill="#5221e6" style="fill: var(--color2, #5221e6)" d="M24.12 23.111v7.111h-9.932v-7.111h9.932zM24.12 1.778v14.222h-9.932v-14.222h9.932zM8.513 16h-7.094v14.222h7.094v-14.222zM8.513 1.778v7.111h-7.094v-7.111h7.094zM14.188 0c-0.784 0-1.419 0.796-1.419 1.778v14.222c0 0.982 0.635 1.778 1.419 1.778h9.932c0.784 0 1.419-0.796 1.419-1.778v-14.222c0-0.982-0.635-1.778-1.419-1.778h-9.932zM14.188 21.333c-0.784 0-1.419 0.796-1.419 1.778v7.111c0 0.982 0.635 1.778 1.419 1.778h9.932c0.784 0 1.419-0.796 1.419-1.778v-7.111c0-0.982-0.635-1.778-1.419-1.778h-9.932zM0 16c0-0.982 0.635-1.778 1.419-1.778h7.094c0.784 0 1.419 0.796 1.419 1.778v14.222c0 0.982-0.635 1.778-1.419 1.778h-7.094c-0.784 0-1.419-0.796-1.419-1.778v-14.222zM1.419 0c-0.784 0-1.419 0.796-1.419 1.778v7.111c0 0.982 0.635 1.778 1.419 1.778h7.094c0.784 0 1.419-0.796 1.419-1.778v-7.111c0-0.982-0.635-1.778-1.419-1.778h-7.094z"></path>
</symbol>
<symbol id="icon-Dribbble-Logo" viewBox="0 0 32 32">
<path fill="#e94b88" style="fill: var(--color3, #e94b88)" d="M16 29.333c-7.352 0-13.333-5.981-13.333-13.333s5.981-13.333 13.333-13.333c7.352 0 13.333 5.981 13.333 13.333s-5.981 13.333-13.333 13.333zM27.245 17.825c-0.39-0.123-3.525-1.058-7.094-0.487 1.49 4.093 2.096 7.427 2.212 8.12 2.555-1.728 4.374-4.464 4.882-7.633zM20.449 26.501c-0.169-0.999-0.831-4.481-2.43-8.636-0.025 0.009-0.050 0.017-0.075 0.025-6.424 2.238-8.73 6.693-8.934 7.112 1.6 1.247 3.504 2.044 5.515 2.308s4.057-0.016 5.924-0.809zM7.539 23.632c0.258-0.442 3.384-5.617 9.257-7.515 0.148-0.048 0.298-0.093 0.449-0.135-0.286-0.647-0.597-1.295-0.923-1.933-5.687 1.702-11.206 1.631-11.705 1.621-0.003 0.116-0.006 0.231-0.006 0.348-0.002 2.813 1.041 5.527 2.928 7.615zM4.852 13.685c0.509 0.007 5.202 0.027 10.529-1.388-1.887-3.354-3.922-6.175-4.222-6.587-3.186 1.503-5.568 4.44-6.306 7.974zM13.331 4.945c0.315 0.421 2.383 3.238 4.25 6.667 4.050-1.518 5.764-3.822 5.969-4.114-1.371-1.218-3.017-2.086-4.796-2.53s-3.64-0.452-5.423-0.023zM24.816 8.815c-0.24 0.325-2.148 2.771-6.359 4.49 0.265 0.543 0.519 1.094 0.756 1.65 0.084 0.197 0.166 0.393 0.245 0.588 3.789-0.477 7.555 0.287 7.93 0.367-0.022-2.589-0.929-5.093-2.572-7.094z"></path>
</symbol>
<symbol id="icon-EPIQ" viewBox="0 0 78 32">
<path fill="#8491a0" style="fill: var(--color1, #8491a0)" d="M21.531 15.557c-1.528 4.65-5.266 7.27-10.319 7.27-6.285 0-11.212-4.987-11.212-11.371 0-6.298 4.926-11.456 10.999-11.456 5.648 0 11.084 4.65 11.042 12.385h-18.389c0.467 4.524 3.949 7.187 7.559 7.187 3.1 0 5.308-1.48 6.498-4.016h3.822zM18.049 9.173c-0.892-3.551-3.865-5.918-7.050-5.918-3.015 0-6.2 2.199-7.134 5.918h14.184zM34.739 22.827c-3.143 0-5.861-1.691-7.432-3.804v12.977h-3.61v-31.45h3.482v3.466c1.529-2.197 4.331-4.016 7.559-4.016 6.285 0 10.914 5.115 10.914 11.372 0 6.341-4.629 11.455-10.914 11.455zM34.739 3.298c-4.035 0-7.432 3.636-7.432 8.074 0 4.48 3.397 8.158 7.432 8.158 4.077 0 7.304-3.678 7.304-8.158 0-4.438-3.228-8.074-7.304-8.074zM47.224 0.55h3.61v21.77h-3.61v-21.77zM52.446 11.469c0-6.353 5.18-11.462 11.739-11.462s11.74 5.11 11.74 11.462c0 6.353-5.229 11.369-11.74 11.369s-11.739-5.017-11.739-11.37zM65.176 3.475c-5.976-0.52-9.299 4.008-9.299 9.284 0 5.275 4.368 9.552 9.754 9.552 2.016 0.004 3.985-0.61 5.639-1.758l-1.352-3.427c1.397-1.449 2.204-3.451 2.204-5.663 0-4.372-3.067-7.627-6.946-7.99z"></path>
<path fill="#8491a0" style="fill: var(--color1, #8491a0)" d="M62.029 13.657l10.65 8.625h5.666l-10.375-8.625z"></path>
</symbol>
<symbol id="icon-FFF" viewBox="0 0 32 32">
<path fill="#8491a0" style="fill: var(--color1, #8491a0)" d="M30.601 0h-30.219c-0.090 0-0.176 0.032-0.245 0.089s-0.115 0.137-0.131 0.225c-0.016 0.088 0 0.179 0.045 0.257s0.115 0.137 0.199 0.168l27.333 8.949c0.031 0.010 0.065 0.009 0.096-0.003s0.056-0.035 0.071-0.064l4.079-7.566c0.114-0.212 0.172-0.451 0.167-0.692s-0.073-0.477-0.197-0.684c-0.124-0.207-0.299-0.379-0.509-0.498s-0.447-0.182-0.688-0.182z"></path>
<path fill="#8491a0" style="fill: var(--color1, #8491a0)" d="M0.007 31.633c0 0.082 0.027 0.162 0.078 0.227s0.121 0.111 0.201 0.131 0.164 0.013 0.239-0.020c0.075-0.033 0.137-0.090 0.176-0.163l5.258-9.74c0.119-0.221 0.297-0.406 0.513-0.535s0.463-0.197 0.714-0.197h13.414c0.252 0 0.498-0.068 0.715-0.197s0.393-0.314 0.513-0.535l4.008-7.432c0.009-0.017 0.014-0.036 0.013-0.055s-0.006-0.038-0.016-0.055c-0.010-0.016-0.024-0.030-0.040-0.040s-0.036-0.014-0.055-0.014h-24.335c-0.37 0-0.724 0.147-0.986 0.408s-0.408 0.616-0.408 0.986v17.23z"></path>
</symbol>
<symbol id="icon-HOJA" viewBox="0 0 32 32">
<path fill="#8491a0" style="fill: var(--color1, #8491a0)" d="M29.696 0h-14.231c-8.541 0-15.465 5.947-15.465 14.488v10.040c6.234-12.744 21.387-21.699 29.696-24.528z"></path>
<path fill="#8491a0" style="fill: var(--color1, #8491a0)" d="M1.525 32h12.612c8.541 0 15.465-6.924 15.465-15.465v-15.796c-13.167 7.311-22.177 18.691-28.077 31.261z"></path>
</symbol>
<symbol id="icon-LinkedIn" viewBox="0 0 32 32">
<path fill="#0077b5" style="fill: var(--color4, #0077b5)" d="M26.2 4h-20.4c-0.96 0-1.8 0.724-1.8 1.688v20.623c0 0.965 0.84 1.688 1.8 1.688h20.4c0.96 0 1.8-0.724 1.8-1.688v-20.623c0-0.844-0.84-1.688-1.8-1.688zM11.080 24.623h-3.6v-11.457h3.6v11.457zM9.28 11.477c-1.2 0-2.040-0.965-2.040-2.050s0.96-2.050 2.040-2.050c1.080 0 2.040 0.965 2.040 2.050 0.12 1.206-0.84 2.050-2.040 2.050zM24.4 24.623h-3.6v-5.548c0-1.327 0-3.015-1.8-3.015s-2.16 1.447-2.16 3.015v5.668h-3.6v-11.457h3.36v1.568c0.48-0.965 1.68-1.809 3.36-1.809 3.6 0 4.32 2.412 4.32 5.427v6.151h0.12z"></path>
</symbol>
<symbol id="icon-MMM" viewBox="0 0 64 32">
<path fill="#8491a0" style="fill: var(--color1, #8491a0)" d="M44.576 10.459c0.235 0 0.466-0.015 0.693-0.045l8.852 12.876c-0.825 0.924-1.327 2.144-1.327 3.481 0 2.888 2.341 5.23 5.23 5.23s5.23-2.341 5.23-5.23c0-2.888-2.341-5.23-5.23-5.23-0.674 0-1.319 0.128-1.911 0.36l-8.498-12.415c1.326-0.949 2.191-2.502 2.191-4.257 0-2.888-2.341-5.23-5.23-5.23s-5.23 2.341-5.23 5.23c0 1.822 0.932 3.427 2.346 4.363l-8.42 12.212c-0.517-0.171-1.071-0.264-1.646-0.264-0.5 0-0.983 0.070-1.441 0.201l-8.376-12.149c1.414-0.936 2.346-2.541 2.346-4.363 0-2.888-2.341-5.23-5.23-5.23s-5.23 2.341-5.23 5.23c0 1.748 0.857 3.295 2.174 4.245l-8.613 12.474c-0.624-0.263-1.309-0.408-2.028-0.408-2.888 0-5.23 2.341-5.23 5.23s2.341 5.23 5.23 5.23 5.23-2.341 5.23-5.23c0-1.261-0.446-2.417-1.189-3.32l8.963-13.037c0.227 0.030 0.458 0.045 0.692 0.045 0.157 0 0.312-0.007 0.466-0.020l8.671 12.504c-1.025 0.955-1.666 2.316-1.666 3.827 0 2.888 2.341 5.23 5.23 5.23s5.23-2.341 5.23-5.23c0-1.437-0.579-2.738-1.517-3.683l8.771-12.649c0.153 0.014 0.309 0.020 0.466 0.020z"></path>
</symbol>
<symbol id="icon-PAINT" viewBox="0 0 32 32">
<path fill="#5221e6" style="fill: var(--color2, #5221e6)" d="M17.221 1.2l13.578 13.578 1.2-1.2-13.578-13.578-1.2 1.2z"></path>
<path fill="#5221e6" style="fill: var(--color2, #5221e6)" d="M19.234 7.601c-0.736-0.736-1.846-0.95-2.803-0.54l-9.423 4.039c-1.113 0.477-1.971 1.406-2.352 2.56-0.893 2.708-2.048 6.287-2.981 9.346-0.466 1.529-0.879 2.934-1.175 4.039-0.148 0.552-0.27 1.036-0.355 1.427-0.079 0.364-0.144 0.723-0.144 0.981v0.352l2.194 2.194h0.352c0.259 0 0.617-0.065 0.981-0.144 0.391-0.085 0.875-0.206 1.427-0.355 1.105-0.297 2.51-0.709 4.039-1.175 3.059-0.933 6.638-2.088 9.346-2.981 1.154-0.381 2.082-1.239 2.56-2.352l4.039-9.423c0.41-0.957 0.196-2.067-0.54-2.803l-5.164-5.164zM17.099 8.622c0.319-0.137 0.689-0.065 0.934 0.18l5.164 5.164c0.245 0.245 0.317 0.615 0.18 0.934l-4.039 9.424c-0.287 0.669-0.843 1.181-1.531 1.408-2.702 0.891-6.268 2.042-9.31 2.97-1.522 0.464-2.906 0.87-3.984 1.16-0.539 0.145-0.994 0.259-1.347 0.335-0.075 0.016-0.143 0.030-0.207 0.043l8.671-8.671c0.946 0.452 2.114 0.286 2.898-0.498 0.994-0.994 0.994-2.606 0-3.6s-2.606-0.994-3.6 0c-0.784 0.784-0.95 1.952-0.498 2.898l-8.672 8.672c0.012-0.063 0.027-0.132 0.043-0.207 0.077-0.353 0.19-0.808 0.335-1.347 0.289-1.078 0.696-2.462 1.16-3.984 0.928-3.042 2.079-6.608 2.97-9.31 0.227-0.688 0.739-1.244 1.408-1.531l9.424-4.039z"></path>
</symbol>
<symbol id="icon-PLAY" viewBox="0 0 32 32">
<path fill="none" stroke="#5221e6" style="stroke: var(--color2, #5221e6)" stroke-linejoin="miter" stroke-linecap="butt" stroke-miterlimit="4" stroke-width="2" d="M31 16c0 8.284-6.716 15-15 15s-15-6.716-15-15c0-8.284 6.716-15 15-15s15 6.716 15 15z"></path>
<path fill="#5221e6" style="fill: var(--color2, #5221e6)" d="M21 16l-7.5 4.33v-8.66l7.5 4.33z"></path>
</symbol>
<symbol id="icon-PHOTO" viewBox="0 0 32 32">
<path fill="#5221e6" style="fill: var(--color2, #5221e6)" d="M29.828 8.236h-2.928l-0.673-3.034c-0.287-1.296-1.417-2.201-2.746-2.201h-10.164c-1.33 0-2.459 0.905-2.746 2.201l-0.673 3.034h-0.695v-1.295c0-0.73-0.595-1.323-1.325-1.323h-4.286c-0.731 0-1.325 0.594-1.325 1.323v1.295h-0.094c-1.198 0-2.172 0.973-2.172 2.169v14.688c0 1.196 0.975 2.169 2.172 2.169h10.075c1.773 1.147 3.886 1.814 6.152 1.814s4.378-0.667 6.151-1.814h5.278c1.198 0 2.172-0.973 2.172-2.169v-14.688c0-1.196-0.974-2.169-2.172-2.169zM11.79 5.471c0.16-0.72 0.787-1.223 1.526-1.223h10.164c0.739 0 1.366 0.503 1.526 1.223l0.613 2.765h-1.070c-1.773-1.147-3.886-1.814-6.151-1.814s-4.378 0.667-6.152 1.814h-1.070l0.613-2.765zM3.516 6.941c0-0.042 0.034-0.075 0.075-0.075h4.286c0.042 0 0.075 0.034 0.075 0.075v1.295h-4.437v-1.295zM5.019 26.013v-6.777c0-0.345-0.28-0.624-0.625-0.624s-0.625 0.279-0.625 0.624v6.777h-1.597c-0.509 0-0.922-0.413-0.922-0.921v-14.688c0-0.508 0.414-0.921 0.922-0.921h8.477c-2.212 2.068-3.597 5.008-3.597 8.265s1.385 6.197 3.597 8.265h-5.631zM24.169 26.013c-0.745 0.52-1.563 0.942-2.436 1.248-1.044 0.366-2.167 0.566-3.335 0.566s-2.29-0.2-3.335-0.566c-0.873-0.306-1.691-0.728-2.436-1.248-2.613-1.823-4.325-4.848-4.325-8.265s1.712-6.441 4.325-8.265c0.745-0.52 1.563-0.942 2.436-1.248 1.045-0.366 2.167-0.566 3.335-0.566s2.29 0.2 3.335 0.566c0.873 0.306 1.691 0.728 2.436 1.248 2.613 1.823 4.325 4.848 4.325 8.265s-1.712 6.441-4.325 8.265zM30.75 25.092c0 0.508-0.414 0.921-0.922 0.921h-3.68c2.212-2.068 3.597-5.008 3.597-8.265s-1.385-6.197-3.597-8.265h3.68c0.509 0 0.922 0.413 0.922 0.921v14.688z"></path>
<path fill="#5221e6" style="fill: var(--color2, #5221e6)" d="M18.37 10.111c-4.248 0-7.704 3.456-7.704 7.704s3.456 7.704 7.704 7.704c0.619 0 1.235-0.074 1.831-0.219 0.315-0.077 0.508-0.394 0.431-0.709s-0.394-0.508-0.709-0.431c-0.505 0.123-1.028 0.186-1.553 0.186-3.601 0-6.53-2.929-6.53-6.53s2.929-6.53 6.53-6.53c3.601 0 6.53 2.929 6.53 6.53 0 1.312-0.387 2.578-1.121 3.659-0.182 0.268-0.112 0.633 0.156 0.815s0.633 0.112 0.815-0.156c0.866-1.277 1.323-2.77 1.323-4.318 0-4.248-3.456-7.704-7.704-7.704z"></path>
<path fill="#5221e6" style="fill: var(--color2, #5221e6)" d="M4.741 11.296c-1.307 0-2.37 1.063-2.37 2.37s1.063 2.37 2.37 2.37c1.307 0 2.37-1.063 2.37-2.37s-1.063-2.37-2.37-2.37zM4.741 14.764c-0.605 0-1.097-0.492-1.097-1.097s0.492-1.097 1.097-1.097 1.097 0.492 1.097 1.097c0 0.605-0.492 1.097-1.097 1.097z"></path>
<path fill="#5221e6" style="fill: var(--color2, #5221e6)" d="M23.692 23.625c-0.008-0.037-0.019-0.075-0.034-0.111s-0.033-0.070-0.055-0.102c-0.021-0.033-0.046-0.063-0.073-0.090s-0.058-0.052-0.090-0.074c-0.033-0.021-0.067-0.040-0.103-0.055s-0.073-0.026-0.111-0.034c-0.076-0.015-0.155-0.015-0.232 0-0.038 0.008-0.075 0.019-0.111 0.034s-0.070 0.033-0.102 0.055c-0.032 0.022-0.062 0.047-0.090 0.074s-0.052 0.057-0.073 0.090c-0.021 0.032-0.040 0.066-0.055 0.102s-0.026 0.073-0.034 0.111c-0.008 0.038-0.012 0.078-0.012 0.116s0.004 0.078 0.012 0.116c0.008 0.038 0.019 0.075 0.034 0.111s0.033 0.070 0.055 0.102c0.021 0.033 0.046 0.063 0.073 0.090s0.058 0.052 0.090 0.073c0.033 0.021 0.067 0.040 0.102 0.055s0.073 0.026 0.111 0.034c0.038 0.008 0.077 0.012 0.116 0.012s0.078-0.004 0.116-0.012c0.038-0.008 0.075-0.019 0.111-0.034s0.070-0.033 0.103-0.055c0.032-0.021 0.063-0.046 0.090-0.073 0.11-0.11 0.173-0.263 0.173-0.419 0-0.038-0.004-0.078-0.011-0.116z"></path>
</symbol>
<symbol id="icon-Twitter-logo" viewBox="0 0 32 32">
<path fill="#26a7de" style="fill: var(--color5, #26a7de)" d="M29.333 9.163c-0.92 0.394-1.97 0.657-3.153 0.788 1.051-0.657 1.97-1.708 2.365-2.89-1.051 0.657-2.233 1.051-3.415 1.314-0.92-1.051-2.365-1.708-3.941-1.708-3.021 0-5.386 2.365-5.386 5.255 0 0.394 0 0.788 0.131 1.182-4.466-0.263-8.407-2.365-11.166-5.517-0.525 0.788-0.788 1.708-0.788 2.627 0 1.839 0.92 3.415 2.365 4.466-0.92 0-1.708-0.263-2.496-0.657 0 0 0 0 0 0.131 0 2.627 1.839 4.729 4.335 5.255-0.394 0.131-0.92 0.131-1.445 0.131-0.394 0-0.657 0-1.051-0.131 0.657 2.102 2.627 3.678 4.992 3.678-1.839 1.445-4.204 2.233-6.699 2.233-0.394 0-0.92-0-1.314-0.131 2.365 1.576 5.255 2.365 8.276 2.365 9.852 0 15.369-8.144 15.369-15.107 0-0.263 0-0.525 0-0.657 1.445-0.657 2.365-1.576 3.021-2.627z"></path>
</symbol>
</defs>
</svg>
